#!OML:ASF E:/inclinewalkrobotboard/Project1/Captureday1/Session1/subject1.ASF
:FULLY-SPECIFIED
:DEGREES
376
root 0 0 0 1.704265919926157 -10.758073545009857 0.7451524880932245
lowerback 0.06684714958196736 -1.5564532408908731 -2.482677252592457
upperback -0.6584232549046422 -2.0413036381737757 1.9464289481522852
thorax -0.5280098039660234 -1.0015268503427048 3.351855755429626
lowerneck -24.45879192291006 -1.5110750490781741 -7.481754083996632
upperneck 28.548967042910526 0.5552064354890069 1.621787524565073
head 13.755987881240845 -0.557459279188192 2.1391236713962485
rclavicle -3.3046706857402497E-15 6.965594579960316E-16
rhumerus -32.95120471483139 -4.725743446552075 -80.19739837410307
rradius 29.98628376794549
rwrist 20.126877145792008
rhand -17.380215610117055 8.742014538174816
rfingers 7.125019999999942
rthumb 8.865526677922265 -21.07121990306468
lclavicle -8.492179001346463E-16 3.8802047797005574E-16
lhumerus -21.880073890600976 -5.424922423411047 92.02432667331487
lradius 65.01435628580093
lwrist 1.7282524410275264
lhand -29.03559141437934 20.856156296103794
lfingers 7.125020000000025
lthumb -2.3969137475375115 50.84490137355486
rfemur 0.46075933772824484 8.466991220576 38.71177522239019
rtibia 23.99720644457942
rfoot -21.713653029539152 -8.09230956811711
rtoes 10.262424982598255
lfemur -22.77362681949238 2.9271307225821874 -13.544240203455468
ltibia 56.123046216430765
lfoot -2.5832600826917904 -4.215093309099458
ltoes -6.833064794374478
377
root 0 0 0 1.7175654476297013 -10.721175328053189 0.7552234486194505
lowerback 0.050563795446143533 -1.5430905080248438 -2.5121125049615114
upperback -0.6628858337874923 -2.0234257490446037 1.929211685138037
thorax -0.5250022347290985 -0.9915416624103458 3.3517423969314937
lowerneck -24.428200683334016 -1.5525992357942777 -7.529502814730275
upperneck 28.457763714194613 0.4679482366467642 1.7406861247351184
head 13.702693674495153 -0.5783346149601828 2.1734680184129713
rclavicle -1.7122651349699006E-15 1.0167836509936366E-15
rhumerus -32.030981798100505 -3.6040331886953885 -81.23375981385192
rradius 30.847871196759836
rwrist 19.479585095347073
rhand -17.65047636772159 8.843356393997185
rfingers 7.125019999999941
rthumb 8.605143946580535 -20.987021349709394
lclavicle 2.526259742547941E-16 5.095630444290151E-16
lhumerus -21.4922580389171 -4.890613312486377 91.84375657583286
lradius 64.8760259323351
lwrist 1.662877993579333
lhand -29.033165989471282 20.80998988160621
lfingers 7.125020000000025
lthumb -2.392698046462293 50.79370077981363
rfemur 3.1077374262658832 8.841988034613504 38.56820369182795
rtibia 21.53559728619839
rfoot -23.227198357765765 -8.619937808533635
rtoes 6.712863966929566
lfemur -25.422455774769332 2.474807731050418 -12.799222784017406
ltibia 52.28027155019733
lfoot -4.504341152812057 -2.274993804155133
ltoes -6.203634188052942
378
root 0 0 0 1.7357872729677948 -10.693260813581645 0.7687979930325355
lowerback 0.03111390388645474 -1.5348059363359734 -2.535864516408146
upperback -0.6587700702727941 -2.0128417287084783 1.9130580773208525
thorax -0.5114186789594481 -0.9856996715061567 3.3496387983005698
lowerneck -24.442422671961108 -1.5973929748443236 -7.573570814169155
upperneck 28.32836255984375 0.381776450089941 1.8525319950387926
head 13.645246894985025 -0.5981794988133537 2.2042966267496764
rclavicle -4.376397610576146E-15 1.0646336948041683E-15
rhumerus -31.211498653506457 -1.9226574640424783 -82.00445607018543
rradius 31.578440196657475
rwrist 18.81995366051702
rhand -18.05487784836582 8.958762271428474
rfingers 7.125019999999942
rthumb 8.215917423700667 -20.890918331793902
lclavicle 3.8610205718602496E-16 1.554814575883922E-16
lhumerus -21.07862434078357 -4.28561547232508 91.53933845461844
lradius 64.74150285842353
lwrist 1.6856281596874463
lhand -28.91465423182656 20.718006598239732
lfingers 7.125020000000026
lthumb -2.275006522220835 50.701688023990364
rfemur 5.726878247763512 8.988396593189757 38.15256521741055
rtibia 20.487276012895833
rfoot -23.621355293913766 -8.483080581106744
rtoes 3.21948839813886
lfemur -28.91453054824123 1.0089719018574894 -11.384977661123136
ltibia 43.48002090750805
lfoot -6.3581876618761966 0.8125759434284126
ltoes -5.416892905852253
379
root 0 0 0 1.750506350528422 -10.687229798241171 0.7793495373418452
lowerback 0.008372885308245426 -1.5321023105496345 -2.552636793890295
upperback -0.6561105789778567 -2.009487578745501 1.8927960596380293
thorax -0.4973080730479229 -0.98369317154717 3.3388645413623435
lowerneck -24.442411156415055 -1.62432366371579 -7.605826520569549
upperneck 28.295107741827913 0.33222255106216725 1.9137821442764615
head 13.62588145601644 -0.610659484225116 2.2218636765220756
rclavicle -8.115578605366913E-15 1.4309004825293633E-15
rhumerus -30.883925673592415 -0.7102399508034836 -82.22332443036763
rradius 31.858676238818123
rwrist 18.47653027850016
rhand -18.376850320663603 9.049239451473484
rfingers 7.125019999999946
rthumb 7.907070155930118 -20.82800683136324
lclavicle 5.497771839137517E-16 -1.441760852323804E-16
lhumerus -20.755234878138783 -3.7311198846140314 91.25316548089117
lradius 64.64281298279913
lwrist 1.711932749914903
lhand -28.784102846871114 20.63649913632737
lfingers 7.125020000000027
lthumb -2.1458155968528967 50.62124426544222
rfemur 9.368296179982993 8.914275391884134 37.35389905330398
rtibia 21.48315127245358
rfoot -22.947591417051612 -7.5336144670632805
rtoes -0.8672562026691875
lfemur -31.86367955299929 -2.0822112859555055 -9.458536282208799
ltibia 29.674009946038325
lfoot -6.612527741184654 4.137867636299449
ltoes -4.344432972219963
380
root 0 0 0 1.7540889686570622 -10.701076496998798 0.7817856700208511
lowerback -0.004182586469815286 -1.533854991252733 -2.5602849357166892
upperback -0.6571132561931239 -2.011556097133136 1.870745850607582
thorax -0.4915425943355012 -0.9842953231372362 3.3206199357152695
lowerneck -24.40199573725089 -1.6218760488675774 -7.616884383119115
upperneck 28.395055787817082 0.3354545242451932 1.9047533222804065
head 13.65219361195628 -0.6119488389611547 2.2206250706988837
rclavicle -9.684301560680526E-15 1.5278501406385471E-15
rhumerus -30.8313607098573 -0.14558780484424094 -82.14331079248336
rradius 31.84811608242385
rwrist 18.344884479125678
rhand -18.52861290782812 9.128084779482688
rfingers 7.125019999999944
rthumb 7.761151340410773 -20.76063739294851
lclavicle 3.2923906318821795E-16 -1.919568440659906E-16
lhumerus -20.54098823471221 -3.0913009929217496 91.03335830742301
lradius 64.50134729460945
lwrist 1.6513273544829015
lhand -28.709298501630784 20.559237647419916
lfingers 7.125020000000028
lthumb -2.0684037718901163 50.54117334992984
rfemur 13.160052316170395 8.263097415209161 35.87956876684972
rtibia 27.012829530834374
rfoot -20.429107718278843 -5.656498904835535
rtoes -5.251951811495673
lfemur -31.061020534912625 -4.719913822118873 -8.94567547781305
ltibia 21.090794926822674
lfoot -5.0752444522227 4.294387741388154
ltoes -3.6965262937852614
381
root 0 0 0 1.7494701896825624 -10.722986850336028 0.7822429716389137
lowerback -0.013379290529461185 -1.5380931875915327 -2.5665916461439546
upperback -0.6639085478524557 -2.0163146220149843 1.848232962538313
thorax -0.4920804955913567 -0.9859045366897611 3.3004983929078833
lowerneck -24.364965365172857 -1.6124856593377341 -7.618125204435529
upperneck 28.532562157938337 0.3526731726525283 1.872476900778054
head 13.694149583295161 -0.6110288352514366 2.2122554610184464
rclavicle -1.0866063044512629E-14 1.261918310780266E-15
rhumerus -30.8774727904255 0.12033719373482743 -81.9477029770328
rradius 31.723530810498097
rwrist 18.296310553013065
rhand -18.590493834164352 9.199281038507122
rfingers 7.125019999999941
rthumb 7.700959984157596 -20.688375993037685
lclavicle -1.6578116332109896E-15 7.336166780214356E-18
lhumerus -20.26760682060806 -2.372948663132348 90.8499635515405
lradius 64.28199830952913
lwrist 1.521635906312977
lhand -28.71431148023124 20.490209211797495
lfingers 7.125020000000028
lthumb -2.0677640195989975 50.46433692527743
rfemur 14.0957315676516 7.092061691110883 34.13523197600826
rtibia 33.79912175127588
rfoot -15.788216899188054 -3.3475249546103787
rtoes -7.2202313137127065
lfemur -29.878369759179876 -5.250701567616035 -9.615118112726794
ltibia 19.707961500691162
lfoot -3.932813352489636 3.5443219365284415
ltoes -2.658438387141832
382
root 0 0 0 1.7382585075819277 -10.759469533264483 0.7895884726891715
lowerback -0.033979748537462884 -1.546043692446036 -2.5734325981194037
upperback -0.6811662600881319 -2.026353025444441 1.8253374239244484
thorax -0.4959339038373256 -0.9896646971540227 3.279448263155937
lowerneck -24.40309269041657 -1.6149019282848123 -7.613775420021677
upperneck 28.61887771165435 0.36114789703377126 1.8381068427712324
head 13.734237882107909 -0.6138072567218198 2.200780167929369
rclavicle -1.1372412750689757E-14 1.1731169695534982E-15
rhumerus -30.967677395019088 0.17930654853114003 -81.74903012497008
rradius 31.582488412537376
rwrist 18.316373821294153
rhand -18.594340928474356 9.231727706463104
rfingers 7.125019999999938
rthumb 7.696549752109783 -20.65050732186184
lclavicle -3.168891177877013E-15 3.250716533081843E-16
lhumerus -19.806847974843375 -1.6730773272797497 90.6419435052262
lradius 64.07290727060409
lwrist 1.4098663599629568
lhand -28.758769052652763 20.496228559920112
lfingers 7.125020000000028
lthumb -2.1078879235405354 50.46187477269236
rfemur 10.553789443162126 5.247525803905516 30.396490689180432
rtibia 43.43903491891749
rfoot -7.002606856221666 -0.7275605616749998
rtoes -5.307971414683789
lfemur -28.625407055059576 -4.9290969571538215 -11.090208448925035
ltibia 21.931974245333876
lfoot -2.789490876745899 1.9072811240549954
ltoes -0.4890319349457979
383
root 0 0 0 1.730861986898448 -10.819035758837055 0.8105360572765238
lowerback -0.08030120292271192 -1.5631671231535136 -2.590205327482014
upperback -0.7013365236795817 -2.049314276047071 1.7927273740408736
thorax -0.48770359756749504 -0.9996943334336293 3.2541760613905546
lowerneck -24.52359658598174 -1.6302028280147498 -7.621728300465442
upperneck 28.620908852221937 0.3605520822493118 1.8175490068997344
head 13.76239794369447 -0.6169836684175769 2.1923694638361373
rclavicle -1.1359568356449301E-14 1.0088917672941544E-15
rhumerus -31.124608127395373 -0.17906974339100667 -81.57321871309469
rradius 31.429116718240415
rwrist 18.43815869986839
rhand -18.497050706995328 9.203554387046456
rfingers 7.125019999999936
rthumb 7.789118707586894 -20.66656262394003
lclavicle -3.3906986196466036E-15 5.161282777638341E-16
lhumerus -19.317690726149223 -1.019087825728283 90.46835415377838
lradius 63.9048693786671
lwrist 1.2580724956756781
lhand -28.8449781585481 20.4852397590816
lfingers 7.125020000000027
lthumb -2.1891799737494484 50.43994904715127
rfemur 2.2076002676087665 3.494874142055516 25.743529467418277
rtibia 55.871200400902026
rfoot 4.375462563412771 1.0635414203890412
rtoes 1.9147282364463178
lfemur -25.502267732877 -4.04746417216206 -14.46084096052848
ltibia 28.43810702853098
lfoot -1.5426278942058662 -1.9254076960628446
ltoes 3.5134212027368577
